<svg xmlns="http://www.w3.org/2000/svg" width="400" height="400" viewBox="0 0 400 400">
  <rect width="400" height="400" fill="none" />
  <!-- main contour lines (Aurora green) -->
  <g fill="none" stroke="#22c55e" stroke-opacity="0.22" stroke-width="1.4">
    <path d="M-40 60 C 40 30 120 40 200 70 S 320 120 400 90 S 480 40 560 70" />
    <path d="M-60 130 C 20 95 110 110 190 130 S 320 170 400 155 S 480 130 560 135" />
    <path d="M-50 210 C 40 180 130 190 220 215 S 340 260 430 245 S 520 220 580 225" />
    <path d="M-80 290 C 10 260 110 275 190 295 S 320 340 420 325 S 510 300 580 305" />
  </g>
  <!-- vertical-ish contours for extra topo feel -->
  <g fill="none" stroke="#4ade80" stroke-opacity="0.18" stroke-width="1">
    <path d="M40 -40 C 60 40 90 90 120 140 S 160 230 170 300 S 180 380 190 440" />
    <path d="M140 -40 C 160 40 190 90 220 140 S 260 230 270 300 S 280 380 290 440" />
    <path d="M260 -40 C 280 40 310 90 340 140 S 380 230 390 300 S 400 380 410 440" />
  </g>
</svg>
