<svg xmlns="http://www.w3.org/2000/svg" width="400" height="400">
  <rect width="400" height="400" fill="none"/>
  <g fill="none" stroke="#22c55e" stroke-opacity="0.08" stroke-width="1.4">
    <path d="M0 100 C100 40 200 60 300 100 S400 160 500 100"/>
    <path d="M0 200 C80 150 200 160 300 200 S400 260 500 200"/>
    <path d="M0 300 C120 260 200 260 300 300 S380 340 500 300"/>
  </g>
  <g fill="none" stroke="#4ade80" stroke-opacity="0.06" stroke-width="1">
    <path d="M100 0 C120 100 160 200 170 300 C180 380 180 420 190 500"/>
    <path d="M250 0 C260 90 310 200 320 300 C330 380 340 440 350 500"/>
  </g>
</svg>
